<svg width="673" height="109" viewBox="0 0 673 109" fill="none" xmlns="http://www.w3.org/2000/svg">
<path d="M117.051 30.7431H69.0534C63.2797 30.7431 58.5991 35.4237 58.5991 41.1974V43.8779C58.5991 49.6516 63.2797 54.3321 69.0534 54.3321H117.051C122.824 54.3321 127.505 49.6516 127.505 43.8779V41.1974C127.505 35.4237 122.824 30.7431 117.051 30.7431Z" fill="#2B283A"/>
<path d="M91.0956 58.6443H67.6649C62.658 58.6443 58.5991 62.7032 58.5991 67.71V70.0346C58.5991 75.0415 62.658 79.1003 67.6649 79.1003H91.0956C96.1025 79.1003 100.161 75.0415 100.161 70.0346V67.71C100.161 62.7032 96.1025 58.6443 91.0956 58.6443Z" fill="#2B283A"/>
<path d="M89.7046 83.4116H41.7072C35.9335 83.4116 31.2529 88.0921 31.2529 93.8658V96.5464C31.2529 102.32 35.9335 107.001 41.7072 107.001H89.7046C95.4783 107.001 100.159 102.32 100.159 96.5464V93.8658C100.159 88.0921 95.4783 83.4116 89.7046 83.4116Z" fill="#2B283A"/>
<path d="M13.4776 83.4116H10.4542C4.6805 83.4116 0 88.0921 0 93.8657V96.5463C0 102.32 4.6805 107 10.4542 107H13.4776C19.2513 107 23.9317 102.32 23.9317 96.5463V93.8657C23.9317 88.0921 19.2513 83.4116 13.4776 83.4116Z" fill="#2B283A"/>
<path d="M152.014 87.44C154.45 102.204 168.928 108.368 185.842 108.368C204.763 108.368 218.524 100.055 218.524 84.1423C218.524 73.535 212.217 65.365 198.599 62.4975L181.685 59.0572C177.097 58.06 176.237 56.047 176.237 54.041C176.237 51.4599 178.244 48.4498 184.409 48.4498C191.432 48.4498 195.732 52.4641 196.449 56.9074L217.377 52.7505C214.511 40.2786 202.613 32.1098 184.695 32.1098C166.49 32.1098 153.733 41.713 153.733 56.4784C153.733 67.8023 161.33 74.9693 174.661 77.4043L189.282 80.273C194.584 81.2702 196.449 83.1393 196.449 85.5755C196.449 88.7306 193.151 91.3094 187.132 91.3094C180.968 91.3094 175.378 89.0158 174.375 82.8518L152.014 87.44Z" fill="#2B283A"/>
<path d="M258.981 88.2992C248.66 88.2992 241.779 80.8458 241.779 70.2385C241.779 59.7738 248.66 52.1765 258.981 52.1765C266.291 52.1765 272.168 56.1908 274.174 64.9348L295.676 59.7737C291.662 42.8597 276.469 32.1098 258.981 32.1098C237.479 32.1098 219.703 47.5906 219.703 70.2385C219.703 93.0301 237.479 108.368 258.981 108.368C276.898 108.368 292.092 97.3308 295.676 80.273L274.604 75.6859C272.168 84.4299 266.291 88.2992 258.981 88.2992Z" fill="#2B283A"/>
<path d="M346.687 33.2553C334.933 33.2553 327.047 39.4193 321.889 48.0195V34.2595H298.953V106.218H321.889V83.7121C321.889 65.0785 330.632 56.7647 346.687 56.7647H350.843L351.84 33.8292C350.119 33.4002 348.686 33.2611 346.68 33.2611L346.687 33.2553Z" fill="#2B283A"/>
<path d="M368.311 0C360.572 0 355.124 6.02028 355.124 13.0435C355.124 20.3555 360.572 25.8017 368.311 25.8017C376.052 25.8017 381.642 20.3555 381.642 13.0435C381.642 6.02028 376.052 0 368.311 0ZM379.778 106.218V34.2594H356.844V106.218H379.778Z" fill="#2B283A"/>
<path d="M478.091 32.1098C466.911 32.1098 458.311 36.8383 452.577 44.2929C447.704 36.4093 439.104 32.1098 429.068 32.1098C419.751 32.1098 412.728 35.4051 407.854 40.8526V34.2596H384.919V106.219H407.854V70.955C407.854 58.9145 413.302 52.7505 421.616 52.7505C428.495 52.7505 433.799 57.9116 433.799 66.0816V106.219H456.734V70.955C456.734 58.9145 462.325 52.7505 470.782 52.7505C477.52 52.7505 482.822 57.9116 482.822 66.0816V106.219H505.615V61.2069C505.615 43.719 493.43 32.1098 478.091 32.1098V32.1098Z" fill="#2B283A"/>
<path d="M554.19 32.1096C544.87 32.1096 537.418 34.9759 531.827 39.9932V3.01007H508.893V106.218H531.827V100.483C537.418 105.502 544.87 108.368 554.19 108.368C573.253 108.368 589.308 93.0299 589.308 70.2383C589.308 47.5904 573.253 32.1096 554.19 32.1096ZM549.459 88.873C540.142 88.873 531.827 81.4184 531.827 70.2383C531.827 59.1996 540.142 51.6047 549.459 51.6047C559.492 51.6047 566.803 59.1996 566.803 70.2383C566.803 81.4184 559.492 88.873 549.459 88.873V88.873Z" fill="#2B283A"/>
<path d="M673 34.2596H650.064V39.9934C644.474 34.9762 637.021 32.1098 627.703 32.1098C608.639 32.1098 592.584 47.5906 592.584 70.2385C592.584 93.0301 608.639 108.368 627.703 108.368C637.021 108.368 644.474 105.502 650.064 100.484V106.219H673V34.2596ZM632.433 88.8732C622.4 88.8732 615.088 81.4186 615.088 70.2385C615.088 59.1998 622.4 51.6049 632.433 51.6049C641.75 51.6049 650.064 59.1998 650.064 70.2385C650.064 81.4186 641.75 88.8732 632.433 88.8732V88.8732Z" fill="#2B283A"/>
</svg>
